<?xml version="1.0" standalone="no"?>
<!DOCTYPE svg PUBLIC "-//W3C//DTD SVG 20010904//EN"
 "http://www.w3.org/TR/2001/REC-SVG-20010904/DTD/svg10.dtd">
<svg version="1.0" xmlns="http://www.w3.org/2000/svg"
 width="777.000000pt" height="777.000000pt" viewBox="0 0 777.000000 777.000000"
 preserveAspectRatio="xMidYMid meet">
<metadata>
Created by potrace 1.14, written by Peter Selinger 2001-2017
</metadata>
<g transform="translate(0.000000,777.000000) scale(0.100000,-0.100000)"
fill="#000000" stroke="none">
<path d="M4127 6854 c-1 -1 -38 -5 -82 -8 -44 -4 -102 -9 -130 -11 -27 -2 -84
-7 -125 -10 -41 -3 -97 -8 -125 -10 -27 -3 -84 -7 -125 -10 -41 -3 -97 -8
-125 -10 -27 -2 -106 -25 -175 -51 -69 -26 -145 -54 -170 -63 -40 -15 -45 -21
-47 -51 -6 -70 -95 -150 -207 -185 -65 -20 -102 -50 -87 -69 13 -15 -14 -31
-69 -41 -19 -4 -44 -15 -55 -25 -11 -10 -57 -41 -103 -69 -46 -28 -102 -70
-125 -92 -23 -23 -57 -53 -74 -66 -18 -14 -33 -30 -33 -35 0 -5 -15 -28 -34
-51 -18 -23 -39 -53 -46 -67 -7 -14 -20 -29 -29 -34 -13 -8 -12 -11 9 -16 19
-4 26 -13 28 -38 2 -18 9 -32 15 -32 26 0 114 49 157 87 75 65 101 82 140 93
20 5 48 20 61 32 45 41 75 56 155 76 43 11 110 29 148 41 38 11 88 23 110 27
22 3 43 7 47 9 3 2 21 7 40 10 19 3 58 10 87 16 29 6 67 12 85 14 65 8 113 17
142 25 17 5 57 16 90 25 47 13 56 19 42 26 -9 6 -17 17 -17 25 0 25 30 28 55
4 19 -18 31 -21 57 -16 42 8 97 54 79 66 -16 9 -7 15 37 25 18 3 39 13 47 21
8 8 23 17 32 19 10 2 43 13 73 23 30 11 81 22 113 26 67 7 78 11 71 30 -6 15
26 37 132 91 37 19 71 40 74 46 4 6 9 10 11 8 10 -6 89 12 85 20 -3 4 32 13
77 19 77 10 115 10 310 -2 42 -2 77 -3 77 -1 0 1 -46 15 -102 30 -57 16 -155
43 -218 61 -206 58 -275 73 -329 71 -29 -1 -53 -3 -54 -3z"/>
<path d="M2508 6442 l-308 -137 -97 -102 c-54 -56 -199 -206 -323 -334 -124
-127 -256 -264 -293 -303 -38 -39 -86 -89 -108 -111 -34 -36 -53 -81 -187
-445 -82 -223 -153 -421 -156 -440 l-7 -35 20 30 c12 17 39 73 62 125 60 140
71 160 99 175 74 41 134 122 136 185 3 96 40 153 118 179 53 18 122 63 158
103 44 48 74 114 105 225 26 95 61 159 141 258 41 50 156 168 193 197 19 14
61 52 93 82 33 31 62 54 64 51 9 -9 180 116 232 170 30 31 66 59 81 62 15 3
44 20 65 39 22 18 43 34 47 34 5 0 28 16 51 35 24 19 47 35 52 35 6 0 25 13
44 30 19 16 33 29 30 29 -3 -1 -143 -62 -312 -137z"/>
<path d="M5681 6333 c8 -10 24 -27 35 -38 22 -21 64 -93 64 -109 0 -5 7 -17
16 -27 10 -11 14 -31 12 -59 l-3 -41 -21 20 c-54 50 -105 18 -167 -105 -29
-57 -40 -68 -82 -79 -75 -20 -92 -16 -74 16 11 21 10 21 -43 15 -77 -9 -112
-23 -123 -48 -12 -28 -41 -31 -37 -4 5 28 -36 65 -92 81 -27 8 -51 15 -53 15
-2 0 6 -10 17 -22 27 -29 48 -68 54 -101 4 -25 2 -26 -27 -24 -18 2 -50 -5
-72 -16 -51 -25 -50 -24 -35 -42 18 -22 6 -19 -36 10 -64 43 -116 30 -62 -16
40 -33 30 -50 -15 -26 -41 23 -72 65 -69 96 1 13 -3 30 -9 37 -9 11 -6 12 18
3 28 -9 101 -14 166 -11 35 2 45 27 21 54 -28 30 -118 89 -207 136 -43 22 -87
52 -98 66 -11 14 -29 26 -39 26 -10 0 -25 11 -34 25 -9 14 -24 25 -34 25 -9 0
-28 9 -42 20 -15 11 -34 17 -50 14 -14 -3 -43 1 -65 9 -34 12 -63 14 -118 8
-5 -1 -6 -5 -3 -10 9 -14 -14 -18 -93 -14 -79 4 -149 -11 -233 -49 -54 -24
-55 -37 -3 -33 22 1 35 -3 35 -10 0 -16 -66 -48 -80 -40 -6 3 -10 0 -10 -8 0
-20 -33 -47 -57 -47 -14 0 -20 -6 -19 -17 1 -12 -9 -20 -29 -24 -16 -4 -26 -7
-20 -8 23 -3 -73 -44 -100 -43 -26 1 -45 -5 -115 -38 -9 -4 -27 -7 -40 -6 -28
1 -70 -30 -70 -51 0 -8 -5 -24 -12 -36 -14 -26 -21 -107 -9 -107 4 0 6 -10 4
-22 -3 -14 4 -32 16 -45 22 -23 35 -23 145 2 39 9 65 11 77 5 19 -11 46 -75
53 -131 5 -33 3 -38 -20 -43 -28 -7 -67 1 -60 13 3 4 1 13 -4 21 -5 7 -3 23 3
37 15 32 1 43 -61 48 -37 2 -56 -1 -67 -11 -19 -20 -38 -92 -29 -113 10 -23
11 -71 0 -71 -4 0 -6 -6 -3 -14 8 -20 -27 -27 -102 -20 -74 6 -114 -5 -159
-45 -18 -17 -76 -44 -135 -65 -56 -21 -110 -41 -119 -46 -19 -10 -48 -3 -48
11 0 5 -11 9 -24 9 -18 0 -25 -6 -28 -22 -3 -24 -33 -32 -55 -15 -11 8 -49 11
-95 8 -34 -2 -14 -81 20 -81 15 0 77 -80 83 -108 11 -51 -45 -132 -92 -132
-15 0 -58 10 -95 22 -38 11 -78 21 -88 20 -10 -1 -32 6 -47 14 -26 13 -34 13
-79 -2 -39 -13 -50 -21 -51 -38 0 -11 -2 -32 -5 -46 -2 -14 -6 -38 -8 -53 -3
-15 -16 -37 -30 -48 -15 -12 -33 -34 -42 -51 -14 -27 -14 -32 0 -53 9 -14 16
-40 16 -58 0 -38 18 -60 47 -57 40 5 53 0 53 -20 0 -11 9 -28 19 -37 19 -16
19 -17 -17 -36 -64 -34 -118 -84 -198 -184 -108 -137 -136 -165 -244 -248
-215 -163 -298 -276 -246 -334 24 -27 20 -89 -15 -188 -32 -92 -48 -183 -32
-183 5 0 8 -15 7 -32 -2 -32 22 -88 38 -88 4 0 7 -4 5 -8 -1 -5 12 -20 28 -34
22 -19 37 -48 55 -110 23 -75 30 -85 68 -111 23 -16 66 -53 95 -84 72 -76 94
-85 207 -88 77 -1 107 -7 162 -29 70 -28 103 -29 164 -5 44 17 187 17 208 0 9
-8 28 -38 41 -68 l25 -53 47 0 c61 0 109 -29 129 -76 19 -45 10 -91 -28 -148
-37 -57 -32 -77 39 -164 67 -81 89 -123 107 -201 24 -104 17 -131 -68 -276
-37 -63 -41 -76 -41 -135 1 -52 7 -77 31 -125 26 -50 37 -77 49 -125 0 -3 4
-23 9 -45 4 -22 18 -85 31 -140 13 -55 25 -125 26 -155 2 -44 8 -60 28 -81 26
-25 29 -26 146 -23 102 2 131 6 195 29 161 59 270 126 257 159 -4 11 8 19 42
31 56 18 99 60 135 132 30 60 66 83 169 109 34 9 75 23 91 31 81 42 151 171
162 298 10 113 23 151 69 198 65 67 116 99 353 218 246 124 269 137 314 171
86 66 141 140 151 206 l5 32 -46 1 c-131 3 -230 8 -257 14 -57 11 -84 46 -125
165 -12 36 -33 79 -46 97 -13 17 -24 42 -24 55 0 13 -9 52 -20 86 -14 45 -20
92 -20 161 0 94 -1 99 -30 131 -16 18 -32 49 -35 69 -6 36 -27 115 -48 181 -6
19 -12 37 -12 40 -1 3 -5 19 -9 35 -4 17 -10 39 -13 50 -3 11 8 -1 25 -26 28
-44 64 -72 59 -46 -5 27 29 10 45 -23 38 -77 98 -290 113 -402 5 -35 24 -108
34 -133 5 -11 19 -42 31 -70 23 -51 23 -52 3 -201 -11 -86 30 -105 167 -80
215 39 320 71 475 141 63 29 135 85 226 177 36 37 31 75 -21 174 -40 75 -45
112 -22 136 14 14 33 -9 35 -45 2 -20 6 -39 9 -42 3 -3 57 -19 119 -34 124
-31 197 -65 216 -102 7 -13 24 -63 38 -110 26 -91 51 -129 84 -132 25 -2 27
-21 7 -68 -8 -19 -14 -61 -14 -94 0 -33 -7 -89 -16 -125 -23 -98 -25 -114 -27
-217 -1 -88 -4 -98 -29 -127 -36 -42 -41 -60 -23 -86 l15 -22 19 31 c10 17 23
31 28 31 23 0 18 -22 -18 -75 -24 -35 -37 -64 -34 -76 6 -22 12 -23 33 -6 35
27 69 86 90 152 12 39 42 116 66 172 24 56 44 110 44 120 1 25 18 45 63 72 21
13 53 46 71 75 30 45 128 151 228 244 l36 34 -24 -134 c-14 -73 -26 -144 -28
-158 -2 -14 -9 -52 -15 -85 -6 -33 -14 -73 -16 -90 -3 -16 -13 -65 -21 -108
-16 -81 -13 -111 7 -61 6 16 94 254 195 529 102 275 194 523 204 550 11 28 17
66 16 85 -2 19 -7 89 -11 155 -4 66 -8 136 -10 155 -2 19 -6 85 -10 145 -3 61
-8 130 -10 155 -4 43 -13 192 -20 310 -8 135 -16 249 -20 292 -4 34 -32 99
-99 230 -51 101 -178 351 -282 557 l-189 374 -164 136 c-90 75 -187 153 -215
175 -28 21 -76 60 -106 87 -30 26 -109 93 -175 148 -113 95 -155 123 -124 84z
m-1975 -1520 c13 -42 27 -61 40 -56 18 7 44 -14 44 -35 0 -26 49 -81 105 -117
57 -36 114 -110 97 -127 -11 -11 -4 -56 10 -64 5 -3 4 -11 -2 -20 -9 -10 -6
-18 13 -36 20 -19 22 -25 11 -36 -15 -14 -11 -26 26 -90 14 -23 31 -40 37 -37
7 2 19 -5 27 -17 21 -30 46 -32 46 -4 0 12 13 35 29 50 36 34 34 34 55 17 15
-13 16 -12 6 13 -5 15 -24 47 -40 71 -41 60 -41 86 1 44 16 -16 23 -18 35 -9
7 7 11 16 8 21 -8 13 90 11 103 -2 9 -9 8 -17 -3 -34 -8 -12 -17 -35 -19 -51
-2 -16 -7 -39 -11 -51 -4 -14 -2 -23 4 -23 21 0 60 -49 55 -68 -3 -12 3 -22
19 -29 18 -9 19 -12 6 -12 -10 -1 -18 -5 -18 -10 0 -19 21 -22 45 -7 32 21 40
20 83 -9 32 -22 38 -23 48 -10 15 20 18 19 62 -10 34 -23 48 -25 126 -24 48 1
89 -1 92 -4 3 -3 -5 -29 -18 -59 -14 -29 -31 -73 -38 -98 -16 -50 -88 -130
-117 -130 -10 0 -36 9 -57 21 -39 21 -94 26 -153 14 -74 -14 -253 57 -323 129
-70 72 -114 69 -225 -14 -68 -51 -97 -46 -228 42 -62 41 -143 93 -182 116 -64
37 -101 68 -119 99 -4 8 9 17 41 26 55 16 63 28 28 47 -33 17 -32 52 1 83 l25
24 -38 10 c-57 17 -140 31 -218 38 -38 4 -87 10 -107 15 -57 12 -168 10 -249
-6 -105 -20 -188 -18 -253 7 -61 22 -76 36 -55 50 16 10 84 10 119 0 34 -10
98 10 156 50 54 36 67 51 104 118 19 35 31 46 50 47 47 3 92 15 117 31 19 13
24 22 19 44 -7 39 23 43 89 13 l54 -25 68 23 c89 31 130 26 158 -21 11 -19 83
-97 159 -174 l139 -140 -16 -26 c-14 -22 -23 -26 -64 -25 -26 1 -72 4 -100 8
-56 7 -67 -3 -40 -35 15 -20 80 -57 104 -60 29 -4 61 10 68 31 3 10 12 17 19
14 6 -2 31 9 53 25 39 29 41 32 36 72 -7 46 -7 46 50 7 27 -19 27 -19 27 0 0
26 -33 66 -75 92 -19 12 -35 29 -35 38 0 9 -23 32 -51 50 -38 25 -56 46 -75
85 -28 61 -33 137 -9 137 9 0 18 -8 21 -17z m994 -147 c0 -8 17 -20 38 -27 24
-9 31 -14 20 -17 -23 -5 -23 -15 2 -37 12 -10 19 -24 16 -31 -7 -18 38 -26
108 -19 57 6 63 4 92 -22 17 -15 58 -49 92 -75 57 -44 102 -106 102 -141 0 -8
-11 -19 -25 -25 -50 -23 -89 -15 -240 46 -50 20 -96 28 -215 37 -83 6 -101 10
-145 31 -34 16 -56 42 -61 73 -5 28 24 78 64 110 23 17 44 41 47 52 8 23 61
53 81 45 9 -3 12 -1 9 4 -3 6 -1 10 4 10 6 0 11 -6 11 -14z m985 -176 c27 -22
17 -47 -23 -63 -47 -19 -76 -59 -68 -93 4 -14 22 -42 41 -63 19 -21 35 -42 35
-47 0 -5 -18 -19 -40 -32 -44 -25 -49 -36 -21 -51 24 -13 33 -58 15 -76 -12
-12 -12 -15 0 -22 18 -11 42 -60 50 -104 l6 -36 -46 1 c-42 2 -52 8 -92 50
-27 29 -41 51 -34 55 6 3 13 18 17 33 9 35 42 69 60 62 25 -10 -5 50 -49 98
-45 49 -66 94 -66 142 0 19 -5 38 -11 41 -7 5 -3 14 10 26 12 11 21 26 21 34
0 8 5 15 10 15 21 0 26 2 45 19 11 10 27 21 35 24 24 8 89 0 105 -13z m-207
-1014 c26 -13 59 -35 75 -50 24 -22 27 -31 21 -63 -5 -36 -3 -41 46 -88 70
-69 74 -77 47 -107 -20 -21 -31 -24 -79 -23 -70 3 -79 9 -73 47 8 41 8 40 6
67 -1 16 -6 21 -16 18 -16 -7 -77 97 -100 170 -11 37 -11 42 4 46 9 3 17 5 19
6 1 0 24 -10 50 -23z"/>
<path d="M2913 5691 c-41 -21 -75 -44 -79 -56 -3 -11 -15 -33 -26 -48 -16 -22
-17 -31 -8 -42 7 -8 16 -12 21 -9 12 7 11 -13 -1 -37 -9 -15 -7 -19 7 -19 14
0 15 -2 4 -9 -8 -5 -12 -18 -8 -31 5 -18 -1 -24 -31 -37 l-37 -15 30 -12 30
-13 -25 -8 c-44 -14 -83 -51 -49 -47 16 2 160 11 207 13 29 2 56 7 61 13 14
19 21 75 11 100 -14 37 -24 106 -22 154 2 40 0 43 -27 48 l-30 6 25 40 c14 22
24 41 22 42 -2 1 -35 -14 -75 -33z"/>
<path d="M2684 5504 c-21 -25 -53 -56 -72 -69 l-34 -23 57 -13 c50 -11 61 -11
88 4 35 19 77 74 77 99 0 24 -28 48 -55 48 -16 0 -36 -15 -61 -46z"/>
<path d="M934 3618 c4 -73 9 -149 11 -168 2 -19 7 -84 10 -145 12 -186 13
-207 20 -300 l6 -90 186 -365 c102 -201 231 -454 287 -564 l101 -198 110 -92
c112 -94 298 -247 420 -346 37 -30 73 -60 79 -65 21 -19 351 -288 366 -299 8
-5 -3 10 -25 34 -22 24 -44 49 -50 55 -109 126 -311 335 -324 335 -5 0 -11 10
-15 23 -3 12 -32 51 -65 87 -33 36 -80 100 -106 142 -25 43 -52 84 -59 91 -14
14 -40 58 -41 69 0 3 -3 9 -7 13 -9 10 2 36 13 29 13 -8 11 10 -3 24 -9 9 -7
12 10 12 13 0 25 7 28 15 10 26 -46 222 -105 365 -17 41 -29 82 -26 90 2 8 7
35 9 60 3 25 9 59 15 76 25 87 -9 183 -96 271 -56 56 -171 143 -190 143 -5 0
-27 17 -48 38 -22 20 -69 60 -105 87 -57 44 -67 57 -77 98 -6 27 -16 54 -22
60 -5 7 -15 35 -22 62 -20 81 -67 152 -115 175 -36 18 -64 53 -64 81 0 5 -9
29 -21 52 -27 55 -32 74 -30 120 1 31 -2 37 -19 37 -11 0 -20 5 -20 10 0 6 -5
10 -11 10 -8 0 -9 -37 -5 -132z"/>
<path d="M6675 2119 c-4 -6 -5 -12 -2 -15 2 -3 7 2 10 11 7 17 1 20 -8 4z"/>
<path d="M4648 1490 c-7 -11 -23 -20 -35 -20 -13 0 -23 -4 -23 -10 0 -16 -59
-41 -107 -47 -54 -6 -79 -25 -103 -79 -11 -25 -32 -50 -55 -64 -43 -26 -91
-116 -73 -137 24 -30 97 -9 153 43 11 11 49 44 85 74 35 30 79 70 97 88 18 17
37 32 43 32 13 0 52 83 56 118 3 28 -21 29 -38 2z"/>
</g>
</svg>
